<?xml version="1.0" encoding="utf-8"?>
<!-- Generator: Adobe Illustrator 23.0.3, SVG Export Plug-In . SVG Version: 6.00 Build 0)  -->
<svg version="1.1" id="Ebene_1" xmlns="http://www.w3.org/2000/svg" xmlns:xlink="http://www.w3.org/1999/xlink" x="0px" y="0px"
	 viewBox="0 0 350 350" style="enable-background:new 0 0 350 350;" xml:space="preserve">
<style type="text/css">
	.st0{fill:none;stroke:#BEBEBE;stroke-width:7;stroke-miterlimit:10;}
</style>
<path class="st0" d="M173.8,276.8c-40.2,0-80.3,0.1-120.5-0.1c-23.9-0.1-37.1-13.3-37.1-36.9c0-40.8-0.1-81.7,0.1-122.5
	c0.1-33,11-43.9,43.2-44c77.5-0.1,155-0.1,232.6,0c30,0,41.3,11.2,41.5,41.4c0.3,40.2,0.3,80.3,0,120.5
	c-0.2,30.1-11.7,41.5-41.4,41.6C252.7,276.9,213.3,276.8,173.8,276.8z M41.2,90.1c-2.3,2.4-4.6,4.8-6.9,7.3
	c2.9,4.1,5.1,8.9,8.8,12.1c40.1,35,80.6,69.5,120.4,104.8c9.9,8.8,16.2,5.6,24.5-1.7c38.4-33.7,77.3-67,115.8-100.6
	c4.6-4,7.9-9.6,11.8-14.5c-1.6-2.1-3.2-4.2-4.8-6.3c-6.8,4-14.3,7.2-20.2,12.2c-38.7,33-77.1,66.4-115.4,99.5
	C128.7,165.4,87.5,124.5,41.2,90.1z"/>
</svg>
