<?xml version="1.0" encoding="utf-8"?>
<!-- Generator: Adobe Illustrator 23.0.3, SVG Export Plug-In . SVG Version: 6.00 Build 0)  -->
<svg version="1.1" id="Ebene_1" xmlns="http://www.w3.org/2000/svg" xmlns:xlink="http://www.w3.org/1999/xlink" x="0px" y="0px"
	 viewBox="0 0 350 350" style="enable-background:new 0 0 350 350;" xml:space="preserve">
<style type="text/css">
	.st0{fill:none;stroke:#BEBEBE;stroke-width:10;stroke-miterlimit:10;}
</style>
<path class="st0" d="M188.5,117.2c4.1,1.2,6.9,1.9,9.6,2.7c17.9,5.3,24.4,1.8,29.1-16.4c4.7-18.3,9.3-36.5,13.7-54.9
	c3.3-13.6-1.5-21.4-15.4-25c-38.2-10-69.1,3.2-87.8,38.6c-21.2,40.5-25.9,84.4-24.4,129.2c1.3,36.9,7,73.1,25.8,105.9
	c20,34.9,52,46.6,90.1,34.1c10.2-3.3,14.3-10.1,12.2-19.9c-4.7-21.6-10.1-43.1-15.7-64.5c-2.7-10.3-11.5-14.5-22.2-11.8
	c-4.8,1.3-9.5,2.6-15.1,4.2C177,198.5,177,158.5,188.5,117.2z"/>
</svg>
